ISO-10303-21;
HEADER;
/* Generated by software containing ST-Developer
 * from STEP Tools, Inc. (www.steptools.com) 
 */
/* OPTION: using custom renumber hook */

FILE_DESCRIPTION(
/* description */ ('STEP AP242',
'CAx-IF Rec.Pracs.---Representation and Presentation of Product Manufa
cturing Information (PMI)---4.0---2014-10-13',
'CAx-IF Rec.Pracs.---3D Tessellated Geometry---0.4---2014-09-14','2;1'),

/* implementation_level */ '2;1');

FILE_NAME(
/* name */ '6797d6e839e4a42647878904',
/* time_stamp */ '2025-01-27T18:56:41Z',
/* author */ (''),
/* organization */ (''),
/* preprocessor_version */ 'ST-DEVELOPER v20',
/* originating_system */ 'ONSHAPE BY PTC INC, 1.192',
/* authorisation */ '  ');

FILE_SCHEMA (('AP242_MANAGED_MODEL_BASED_3D_ENGINEERING_MIM_LF { 1 0 10303 442 1 1 4 }'));
ENDSEC;

DATA;
#10=SHAPE_REPRESENTATION_RELATIONSHIP('','',#369,#11);
#11=ADVANCED_BREP_SHAPE_REPRESENTATION('',(#367),#771);
#12=B_SPLINE_CURVE_WITH_KNOTS('',3,(#741,#742,#743,#744),.UNSPECIFIED.,
 .F.,.F.,(4,4),(0.00275042481544702,0.00753231319204544),.UNSPECIFIED.);
#13=B_SPLINE_CURVE_WITH_KNOTS('',3,(#749,#750,#751,#752),.UNSPECIFIED.,
 .F.,.F.,(4,4),(0.00550016329376668,0.0102825684437301),.UNSPECIFIED.);
#14=B_SPLINE_SURFACE_WITH_KNOTS('',1,1,((#657,#658),(#659,#660)),
 .PLANE_SURF.,.F.,.F.,.F.,(2,2),(2,2),(0.0427315991146131,0.954561694782074),
(0.0419418409000892,0.956121153583821),.PIECEWISE_BEZIER_KNOTS.);
#15=B_SPLINE_SURFACE_WITH_KNOTS('',1,1,((#662,#663),(#664,#665)),
 .PLANE_SURF.,.F.,.F.,.F.,(2,2),(2,2),(0.0454302863209664,0.958612902608894),
(0.0422943659840192,0.958509789231438),.PIECEWISE_BEZIER_KNOTS.);
#16=B_SPLINE_SURFACE_WITH_KNOTS('',1,1,((#682,#683),(#684,#685)),
 .PLANE_SURF.,.F.,.F.,.F.,(2,2),(2,2),(0.0454383052179255,0.957268400885387),
(0.0438788464161791,0.958058159099911),.PIECEWISE_BEZIER_KNOTS.);
#17=B_SPLINE_SURFACE_WITH_KNOTS('',1,1,((#715,#716),(#717,#718)),
 .PLANE_SURF.,.F.,.F.,.F.,(2,2),(2,2),(0.0453208769064052,0.0900823190439159),
(0.47482097926686,0.525285948249364),.PIECEWISE_BEZIER_KNOTS.);
#18=B_SPLINE_SURFACE_WITH_KNOTS('',1,1,((#719,#720),(#721,#722)),
 .PLANE_SURF.,.F.,.F.,.F.,(2,2),(2,2),(0.706787927693603,0.751549369831114),
(0.904274395580302,0.954739364562807),.PIECEWISE_BEZIER_KNOTS.);
#19=B_SPLINE_SURFACE_WITH_KNOTS('',1,1,((#723,#724),(#725,#726)),
 .PLANE_SURF.,.F.,.F.,.F.,(2,2),(2,2),(0.706787927693603,0.751549369831114),
(0.0453675629534171,0.0958325319359216),.PIECEWISE_BEZIER_KNOTS.);
#20=B_SPLINE_SURFACE_WITH_KNOTS('',1,1,((#735,#736),(#737,#738)),
 .PLANE_SURF.,.F.,.F.,.F.,(2,2),(2,2),(0.,1.),(0.,1.),.UNSPECIFIED.);
#21=B_SPLINE_SURFACE_WITH_KNOTS('',1,1,((#745,#746),(#747,#748)),
 .PLANE_SURF.,.F.,.F.,.F.,(2,2),(2,2),(0.,1.),(0.,1.),.UNSPECIFIED.);
#22=B_SPLINE_SURFACE_WITH_KNOTS('',1,1,((#755,#756),(#757,#758)),
 .PLANE_SURF.,.F.,.F.,.F.,(2,2),(2,2),(0.138186145140981,0.958301393961712),
(0.0838071380939314,0.915792806806399),.PIECEWISE_BEZIER_KNOTS.);
#23=LINE('',#548,#31);
#24=LINE('',#640,#32);
#25=LINE('',#646,#33);
#26=LINE('',#666,#34);
#27=LINE('',#669,#35);
#28=LINE('',#680,#36);
#29=LINE('',#739,#37);
#30=LINE('',#754,#38);
#31=VECTOR('',#416,1.);
#32=VECTOR('',#439,1.);
#33=VECTOR('',#444,1.);
#34=VECTOR('',#451,1.);
#35=VECTOR('',#454,1.);
#36=VECTOR('',#457,1.);
#37=VECTOR('',#462,1.);
#38=VECTOR('',#463,1.);
#39=(
BOUNDED_CURVE()
B_SPLINE_CURVE(1,(#480,#481),.UNSPECIFIED.,.F.,.F.)
B_SPLINE_CURVE_WITH_KNOTS((2,2),(0.,1.),.PIECEWISE_BEZIER_KNOTS.)
CURVE()
GEOMETRIC_REPRESENTATION_ITEM()
RATIONAL_B_SPLINE_CURVE((1.,1.))
REPRESENTATION_ITEM('')
);
#40=(
BOUNDED_CURVE()
B_SPLINE_CURVE(1,(#485,#486),.UNSPECIFIED.,.F.,.F.)
B_SPLINE_CURVE_WITH_KNOTS((2,2),(0.,1.),.PIECEWISE_BEZIER_KNOTS.)
CURVE()
GEOMETRIC_REPRESENTATION_ITEM()
RATIONAL_B_SPLINE_CURVE((1.,1.))
REPRESENTATION_ITEM('')
);
#41=(
BOUNDED_CURVE()
B_SPLINE_CURVE(3,(#516,#517,#518,#519),.UNSPECIFIED.,.F.,.F.)
B_SPLINE_CURVE_WITH_KNOTS((4,4),(0.,1.),.PIECEWISE_BEZIER_KNOTS.)
CURVE()
GEOMETRIC_REPRESENTATION_ITEM()
RATIONAL_B_SPLINE_CURVE((1.,0.958967835982402,0.958967835982402,1.))
REPRESENTATION_ITEM('')
);
#42=(
BOUNDED_CURVE()
B_SPLINE_CURVE(3,(#523,#524,#525,#526),.UNSPECIFIED.,.F.,.F.)
B_SPLINE_CURVE_WITH_KNOTS((4,4),(0.,1.),.PIECEWISE_BEZIER_KNOTS.)
CURVE()
GEOMETRIC_REPRESENTATION_ITEM()
RATIONAL_B_SPLINE_CURVE((1.,0.958967835982402,0.958967835982402,1.))
REPRESENTATION_ITEM('')
);
#43=(
BOUNDED_CURVE()
B_SPLINE_CURVE(1,(#538,#539),.UNSPECIFIED.,.F.,.F.)
B_SPLINE_CURVE_WITH_KNOTS((2,2),(0.,1.),.PIECEWISE_BEZIER_KNOTS.)
CURVE()
GEOMETRIC_REPRESENTATION_ITEM()
RATIONAL_B_SPLINE_CURVE((1.,1.))
REPRESENTATION_ITEM('')
);
#44=(
BOUNDED_CURVE()
B_SPLINE_CURVE(1,(#543,#544),.UNSPECIFIED.,.F.,.F.)
B_SPLINE_CURVE_WITH_KNOTS((2,2),(0.,1.),.PIECEWISE_BEZIER_KNOTS.)
CURVE()
GEOMETRIC_REPRESENTATION_ITEM()
RATIONAL_B_SPLINE_CURVE((1.,1.))
REPRESENTATION_ITEM('')
);
#45=(
BOUNDED_CURVE()
B_SPLINE_CURVE(1,(#560,#561),.UNSPECIFIED.,.F.,.F.)
B_SPLINE_CURVE_WITH_KNOTS((2,2),(0.,1.),.PIECEWISE_BEZIER_KNOTS.)
CURVE()
GEOMETRIC_REPRESENTATION_ITEM()
RATIONAL_B_SPLINE_CURVE((1.,1.))
REPRESENTATION_ITEM('')
);
#46=(
BOUNDED_CURVE()
B_SPLINE_CURVE(1,(#565,#566),.UNSPECIFIED.,.F.,.F.)
B_SPLINE_CURVE_WITH_KNOTS((2,2),(0.,1.),.PIECEWISE_BEZIER_KNOTS.)
CURVE()
GEOMETRIC_REPRESENTATION_ITEM()
RATIONAL_B_SPLINE_CURVE((1.,1.))
REPRESENTATION_ITEM('')
);
#47=(
BOUNDED_CURVE()
B_SPLINE_CURVE(1,(#578,#579),.UNSPECIFIED.,.F.,.F.)
B_SPLINE_CURVE_WITH_KNOTS((2,2),(0.,1.),.PIECEWISE_BEZIER_KNOTS.)
CURVE()
GEOMETRIC_REPRESENTATION_ITEM()
RATIONAL_B_SPLINE_CURVE((1.,1.))
REPRESENTATION_ITEM('')
);
#48=(
BOUNDED_CURVE()
B_SPLINE_CURVE(1,(#583,#584),.UNSPECIFIED.,.F.,.F.)
B_SPLINE_CURVE_WITH_KNOTS((2,2),(0.,1.),.PIECEWISE_BEZIER_KNOTS.)
CURVE()
GEOMETRIC_REPRESENTATION_ITEM()
RATIONAL_B_SPLINE_CURVE((1.,1.))
REPRESENTATION_ITEM('')
);
#49=(
BOUNDED_CURVE()
B_SPLINE_CURVE(1,(#596,#597),.UNSPECIFIED.,.F.,.F.)
B_SPLINE_CURVE_WITH_KNOTS((2,2),(0.,1.),.PIECEWISE_BEZIER_KNOTS.)
CURVE()
GEOMETRIC_REPRESENTATION_ITEM()
RATIONAL_B_SPLINE_CURVE((1.,1.))
REPRESENTATION_ITEM('')
);
#50=(
BOUNDED_CURVE()
B_SPLINE_CURVE(1,(#601,#602),.UNSPECIFIED.,.F.,.F.)
B_SPLINE_CURVE_WITH_KNOTS((2,2),(0.,1.),.PIECEWISE_BEZIER_KNOTS.)
CURVE()
GEOMETRIC_REPRESENTATION_ITEM()
RATIONAL_B_SPLINE_CURVE((1.,1.))
REPRESENTATION_ITEM('')
);
#51=ORIENTED_EDGE('',*,*,#153,.F.);
#52=ORIENTED_EDGE('',*,*,#154,.T.);
#53=ORIENTED_EDGE('',*,*,#155,.F.);
#54=ORIENTED_EDGE('',*,*,#156,.F.);
#55=ORIENTED_EDGE('',*,*,#157,.T.);
#56=ORIENTED_EDGE('',*,*,#158,.T.);
#57=ORIENTED_EDGE('',*,*,#159,.F.);
#58=ORIENTED_EDGE('',*,*,#160,.F.);
#59=ORIENTED_EDGE('',*,*,#161,.T.);
#60=ORIENTED_EDGE('',*,*,#162,.T.);
#61=ORIENTED_EDGE('',*,*,#163,.T.);
#62=ORIENTED_EDGE('',*,*,#164,.F.);
#63=ORIENTED_EDGE('',*,*,#165,.F.);
#64=ORIENTED_EDGE('',*,*,#166,.T.);
#65=ORIENTED_EDGE('',*,*,#167,.F.);
#66=ORIENTED_EDGE('',*,*,#168,.T.);
#67=ORIENTED_EDGE('',*,*,#169,.F.);
#68=ORIENTED_EDGE('',*,*,#170,.F.);
#69=ORIENTED_EDGE('',*,*,#171,.F.);
#70=ORIENTED_EDGE('',*,*,#172,.T.);
#71=ORIENTED_EDGE('',*,*,#173,.F.);
#72=ORIENTED_EDGE('',*,*,#174,.F.);
#73=ORIENTED_EDGE('',*,*,#175,.F.);
#74=ORIENTED_EDGE('',*,*,#176,.T.);
#75=ORIENTED_EDGE('',*,*,#177,.F.);
#76=ORIENTED_EDGE('',*,*,#178,.F.);
#77=ORIENTED_EDGE('',*,*,#176,.F.);
#78=ORIENTED_EDGE('',*,*,#179,.F.);
#79=ORIENTED_EDGE('',*,*,#178,.T.);
#80=ORIENTED_EDGE('',*,*,#180,.F.);
#81=ORIENTED_EDGE('',*,*,#172,.F.);
#82=ORIENTED_EDGE('',*,*,#181,.F.);
#83=ORIENTED_EDGE('',*,*,#174,.T.);
#84=ORIENTED_EDGE('',*,*,#182,.F.);
#85=ORIENTED_EDGE('',*,*,#183,.F.);
#86=ORIENTED_EDGE('',*,*,#184,.T.);
#87=ORIENTED_EDGE('',*,*,#185,.T.);
#88=ORIENTED_EDGE('',*,*,#186,.T.);
#89=ORIENTED_EDGE('',*,*,#187,.F.);
#90=ORIENTED_EDGE('',*,*,#168,.F.);
#91=ORIENTED_EDGE('',*,*,#188,.F.);
#92=ORIENTED_EDGE('',*,*,#170,.T.);
#93=ORIENTED_EDGE('',*,*,#189,.F.);
#94=ORIENTED_EDGE('',*,*,#155,.T.);
#95=ORIENTED_EDGE('',*,*,#190,.T.);
#96=ORIENTED_EDGE('',*,*,#191,.F.);
#97=ORIENTED_EDGE('',*,*,#165,.T.);
#98=ORIENTED_EDGE('',*,*,#192,.T.);
#99=ORIENTED_EDGE('',*,*,#193,.T.);
#100=ORIENTED_EDGE('',*,*,#186,.F.);
#101=ORIENTED_EDGE('',*,*,#185,.F.);
#102=ORIENTED_EDGE('',*,*,#181,.T.);
#103=ORIENTED_EDGE('',*,*,#171,.T.);
#104=ORIENTED_EDGE('',*,*,#179,.T.);
#105=ORIENTED_EDGE('',*,*,#175,.T.);
#106=ORIENTED_EDGE('',*,*,#188,.T.);
#107=ORIENTED_EDGE('',*,*,#167,.T.);
#108=ORIENTED_EDGE('',*,*,#162,.F.);
#109=ORIENTED_EDGE('',*,*,#194,.T.);
#110=ORIENTED_EDGE('',*,*,#195,.F.);
#111=ORIENTED_EDGE('',*,*,#192,.F.);
#112=ORIENTED_EDGE('',*,*,#164,.T.);
#113=ORIENTED_EDGE('',*,*,#196,.T.);
#114=ORIENTED_EDGE('',*,*,#196,.F.);
#115=ORIENTED_EDGE('',*,*,#163,.F.);
#116=ORIENTED_EDGE('',*,*,#159,.T.);
#117=ORIENTED_EDGE('',*,*,#197,.T.);
#118=ORIENTED_EDGE('',*,*,#158,.F.);
#119=ORIENTED_EDGE('',*,*,#153,.T.);
#120=ORIENTED_EDGE('',*,*,#160,.T.);
#121=ORIENTED_EDGE('',*,*,#197,.F.);
#122=ORIENTED_EDGE('',*,*,#169,.T.);
#123=ORIENTED_EDGE('',*,*,#189,.T.);
#124=ORIENTED_EDGE('',*,*,#173,.T.);
#125=ORIENTED_EDGE('',*,*,#182,.T.);
#126=ORIENTED_EDGE('',*,*,#177,.T.);
#127=ORIENTED_EDGE('',*,*,#180,.T.);
#128=ORIENTED_EDGE('',*,*,#154,.F.);
#129=ORIENTED_EDGE('',*,*,#157,.F.);
#130=ORIENTED_EDGE('',*,*,#156,.T.);
#131=ORIENTED_EDGE('',*,*,#190,.F.);
#132=ORIENTED_EDGE('',*,*,#198,.T.);
#133=ORIENTED_EDGE('',*,*,#199,.T.);
#134=ORIENTED_EDGE('',*,*,#166,.F.);
#135=ORIENTED_EDGE('',*,*,#191,.T.);
#136=ORIENTED_EDGE('',*,*,#184,.F.);
#137=ORIENTED_EDGE('',*,*,#195,.T.);
#138=ORIENTED_EDGE('',*,*,#200,.T.);
#139=ORIENTED_EDGE('',*,*,#201,.F.);
#140=ORIENTED_EDGE('',*,*,#187,.T.);
#141=ORIENTED_EDGE('',*,*,#193,.F.);
#142=ORIENTED_EDGE('',*,*,#201,.T.);
#143=ORIENTED_EDGE('',*,*,#202,.T.);
#144=ORIENTED_EDGE('',*,*,#203,.T.);
#145=ORIENTED_EDGE('',*,*,#198,.F.);
#146=ORIENTED_EDGE('',*,*,#183,.T.);
#147=ORIENTED_EDGE('',*,*,#200,.F.);
#148=ORIENTED_EDGE('',*,*,#194,.F.);
#149=ORIENTED_EDGE('',*,*,#161,.F.);
#150=ORIENTED_EDGE('',*,*,#199,.F.);
#151=ORIENTED_EDGE('',*,*,#203,.F.);
#152=ORIENTED_EDGE('',*,*,#202,.F.);
#153=EDGE_CURVE('',#204,#205,#238,.T.);
#154=EDGE_CURVE('',#204,#206,#39,.T.);
#155=EDGE_CURVE('',#207,#206,#239,.T.);
#156=EDGE_CURVE('',#205,#207,#40,.T.);
#157=EDGE_CURVE('',#205,#204,#240,.T.);
#158=EDGE_CURVE('',#204,#208,#41,.T.);
#159=EDGE_CURVE('',#209,#208,#241,.T.);
#160=EDGE_CURVE('',#205,#209,#42,.T.);
#161=EDGE_CURVE('',#210,#211,#242,.T.);
#162=EDGE_CURVE('',#211,#212,#43,.T.);
#163=EDGE_CURVE('',#212,#213,#243,.T.);
#164=EDGE_CURVE('',#214,#213,#44,.T.);
#165=EDGE_CURVE('',#215,#214,#244,.T.);
#166=EDGE_CURVE('',#215,#210,#23,.T.);
#167=EDGE_CURVE('',#216,#217,#245,.T.);
#168=EDGE_CURVE('',#216,#218,#45,.T.);
#169=EDGE_CURVE('',#219,#218,#246,.F.);
#170=EDGE_CURVE('',#217,#219,#46,.T.);
#171=EDGE_CURVE('',#220,#221,#247,.T.);
#172=EDGE_CURVE('',#220,#222,#47,.T.);
#173=EDGE_CURVE('',#223,#222,#248,.F.);
#174=EDGE_CURVE('',#221,#223,#48,.T.);
#175=EDGE_CURVE('',#224,#225,#249,.T.);
#176=EDGE_CURVE('',#224,#226,#49,.T.);
#177=EDGE_CURVE('',#227,#226,#250,.F.);
#178=EDGE_CURVE('',#225,#227,#50,.T.);
#179=EDGE_CURVE('',#225,#224,#251,.T.);
#180=EDGE_CURVE('',#226,#227,#252,.F.);
#181=EDGE_CURVE('',#221,#220,#253,.T.);
#182=EDGE_CURVE('',#222,#223,#254,.F.);
#183=EDGE_CURVE('',#228,#229,#255,.F.);
#184=EDGE_CURVE('',#228,#230,#24,.T.);
#185=EDGE_CURVE('',#230,#231,#256,.T.);
#186=EDGE_CURVE('',#231,#232,#257,.T.);
#187=EDGE_CURVE('',#229,#232,#25,.T.);
#188=EDGE_CURVE('',#217,#216,#258,.T.);
#189=EDGE_CURVE('',#218,#219,#259,.F.);
#190=EDGE_CURVE('',#206,#207,#260,.T.);
#191=EDGE_CURVE('',#215,#230,#26,.T.);
#192=EDGE_CURVE('',#214,#233,#261,.T.);
#193=EDGE_CURVE('',#233,#232,#27,.T.);
#194=EDGE_CURVE('',#211,#234,#262,.T.);
#195=EDGE_CURVE('',#233,#234,#28,.T.);
#196=EDGE_CURVE('',#213,#212,#263,.T.);
#197=EDGE_CURVE('',#208,#209,#264,.T.);
#198=EDGE_CURVE('',#228,#235,#29,.T.);
#199=EDGE_CURVE('',#235,#210,#12,.T.);
#200=EDGE_CURVE('',#234,#236,#13,.T.);
#201=EDGE_CURVE('',#229,#236,#30,.T.);
#202=EDGE_CURVE('',#236,#237,#265,.F.);
#203=EDGE_CURVE('',#237,#235,#266,.F.);
#204=VERTEX_POINT('',#478);
#205=VERTEX_POINT('',#479);
#206=VERTEX_POINT('',#482);
#207=VERTEX_POINT('',#484);
#208=VERTEX_POINT('',#520);
#209=VERTEX_POINT('',#522);
#210=VERTEX_POINT('',#536);
#211=VERTEX_POINT('',#537);
#212=VERTEX_POINT('',#540);
#213=VERTEX_POINT('',#542);
#214=VERTEX_POINT('',#545);
#215=VERTEX_POINT('',#547);
#216=VERTEX_POINT('',#558);
#217=VERTEX_POINT('',#559);
#218=VERTEX_POINT('',#562);
#219=VERTEX_POINT('',#564);
#220=VERTEX_POINT('',#576);
#221=VERTEX_POINT('',#577);
#222=VERTEX_POINT('',#580);
#223=VERTEX_POINT('',#582);
#224=VERTEX_POINT('',#594);
#225=VERTEX_POINT('',#595);
#226=VERTEX_POINT('',#598);
#227=VERTEX_POINT('',#600);
#228=VERTEX_POINT('',#638);
#229=VERTEX_POINT('',#639);
#230=VERTEX_POINT('',#641);
#231=VERTEX_POINT('',#643);
#232=VERTEX_POINT('',#645);
#233=VERTEX_POINT('',#668);
#234=VERTEX_POINT('',#679);
#235=VERTEX_POINT('',#740);
#236=VERTEX_POINT('',#753);
#237=VERTEX_POINT('',#760);
#238=CIRCLE('',#371,0.0231786573570876);
#239=CIRCLE('',#372,0.0223866007093474);
#240=CIRCLE('',#373,0.0231786573570876);
#241=CIRCLE('',#374,0.025);
#242=CIRCLE('',#375,0.021);
#243=CIRCLE('',#376,0.021);
#244=CIRCLE('',#377,0.021);
#245=CIRCLE('',#378,0.0009);
#246=CIRCLE('',#379,0.0009);
#247=CIRCLE('',#380,0.0009);
#248=CIRCLE('',#381,0.0009);
#249=CIRCLE('',#382,0.0009);
#250=CIRCLE('',#383,0.0009);
#251=CIRCLE('',#384,0.0009);
#252=CIRCLE('',#385,0.0009);
#253=CIRCLE('',#386,0.0009);
#254=CIRCLE('',#387,0.0009);
#255=CIRCLE('',#388,0.0148);
#256=CIRCLE('',#389,0.0148);
#257=CIRCLE('',#390,0.0148);
#258=CIRCLE('',#391,0.0009);
#259=CIRCLE('',#392,0.0009);
#260=CIRCLE('',#393,0.0223866007093474);
#261=CIRCLE('',#394,0.021);
#262=CIRCLE('',#395,0.021);
#263=CIRCLE('',#396,0.021);
#264=CIRCLE('',#397,0.025);
#265=CIRCLE('',#398,0.018);
#266=CIRCLE('',#399,0.018);
#267=EDGE_LOOP('',(#51,#52,#53,#54));
#268=EDGE_LOOP('',(#55,#56,#57,#58));
#269=EDGE_LOOP('',(#59,#60,#61,#62,#63,#64));
#270=EDGE_LOOP('',(#65,#66,#67,#68));
#271=EDGE_LOOP('',(#69,#70,#71,#72));
#272=EDGE_LOOP('',(#73,#74,#75,#76));
#273=EDGE_LOOP('',(#77,#78,#79,#80));
#274=EDGE_LOOP('',(#81,#82,#83,#84));
#275=EDGE_LOOP('',(#85,#86,#87,#88,#89));
#276=EDGE_LOOP('',(#90,#91,#92,#93));
#277=EDGE_LOOP('',(#94,#95));
#278=EDGE_LOOP('',(#96,#97,#98,#99,#100,#101));
#279=EDGE_LOOP('',(#102,#103));
#280=EDGE_LOOP('',(#104,#105));
#281=EDGE_LOOP('',(#106,#107));
#282=EDGE_LOOP('',(#108,#109,#110,#111,#112,#113));
#283=EDGE_LOOP('',(#114,#115));
#284=EDGE_LOOP('',(#116,#117));
#285=EDGE_LOOP('',(#118,#119,#120,#121));
#286=EDGE_LOOP('',(#122,#123));
#287=EDGE_LOOP('',(#124,#125));
#288=EDGE_LOOP('',(#126,#127));
#289=EDGE_LOOP('',(#128,#129,#130,#131));
#290=EDGE_LOOP('',(#132,#133,#134,#135,#136));
#291=EDGE_LOOP('',(#137,#138,#139,#140,#141));
#292=EDGE_LOOP('',(#142,#143,#144,#145,#146));
#293=EDGE_LOOP('',(#147,#148,#149,#150,#151,#152));
#294=FACE_BOUND('',#267,.T.);
#295=FACE_BOUND('',#268,.T.);
#296=FACE_BOUND('',#269,.T.);
#297=FACE_BOUND('',#270,.T.);
#298=FACE_BOUND('',#271,.T.);
#299=FACE_BOUND('',#272,.T.);
#300=FACE_BOUND('',#273,.T.);
#301=FACE_BOUND('',#274,.T.);
#302=FACE_BOUND('',#275,.T.);
#303=FACE_BOUND('',#276,.T.);
#304=FACE_BOUND('',#277,.T.);
#305=FACE_BOUND('',#278,.T.);
#306=FACE_BOUND('',#279,.T.);
#307=FACE_BOUND('',#280,.T.);
#308=FACE_BOUND('',#281,.T.);
#309=FACE_BOUND('',#282,.T.);
#310=FACE_BOUND('',#283,.T.);
#311=FACE_BOUND('',#284,.T.);
#312=FACE_BOUND('',#285,.T.);
#313=FACE_BOUND('',#286,.T.);
#314=FACE_BOUND('',#287,.T.);
#315=FACE_BOUND('',#288,.T.);
#316=FACE_BOUND('',#289,.T.);
#317=FACE_BOUND('',#290,.T.);
#318=FACE_BOUND('',#291,.T.);
#319=FACE_BOUND('',#292,.T.);
#320=FACE_BOUND('',#293,.T.);
#321=(
BOUNDED_SURFACE()
B_SPLINE_SURFACE(1,3,((#469,#470,#471,#472),(#473,#474,#475,#476)),
 .CONICAL_SURF.,.F.,.F.,.F.)
B_SPLINE_SURFACE_WITH_KNOTS((2,2),(4,4),(0.00170567613868542,0.0358191989124189),
(0.5,1.),.PIECEWISE_BEZIER_KNOTS.)
GEOMETRIC_REPRESENTATION_ITEM()
RATIONAL_B_SPLINE_SURFACE(((1.,0.333333333333333,0.333333333333333,1.),
(1.,0.333333333333333,0.333333333333333,1.)))
REPRESENTATION_ITEM('')
SURFACE()
);
#322=(
BOUNDED_SURFACE()
B_SPLINE_SURFACE(3,3,((#487,#488,#489,#490,#491,#492,#493),(#494,#495,#496,
#497,#498,#499,#500),(#501,#502,#503,#504,#505,#506,#507),(#508,#509,#510,
#511,#512,#513,#514)),.TOROIDAL_SURF.,.F.,.T.,.F.)
B_SPLINE_SURFACE_WITH_KNOTS((4,4),(4,3,4),(0.,1.),(0.,0.5,1.),
 .PIECEWISE_BEZIER_KNOTS.)
GEOMETRIC_REPRESENTATION_ITEM()
RATIONAL_B_SPLINE_SURFACE(((1.,0.333333333333333,0.333333333333333,1.,0.333333333333333,
0.333333333333333,1.),(0.958967835982402,0.319655945327467,0.319655945327467,
0.958967835982402,0.319655945327467,0.319655945327467,0.958967835982402),
(0.958967835982402,0.319655945327467,0.319655945327467,0.958967835982402,
0.319655945327467,0.319655945327467,0.958967835982402),(1.,0.333333333333333,
0.333333333333333,1.,0.333333333333333,0.333333333333333,1.)))
REPRESENTATION_ITEM('')
SURFACE()
);
#323=(
BOUNDED_SURFACE()
B_SPLINE_SURFACE(3,1,((#527,#528),(#529,#530),(#531,#532),(#533,#534)),
 .CYLINDRICAL_SURF.,.F.,.F.,.F.)
B_SPLINE_SURFACE_WITH_KNOTS((4,4),(2,2),(0.5,1.),(0.0454545454545453,0.954545454545455),
 .PIECEWISE_BEZIER_KNOTS.)
GEOMETRIC_REPRESENTATION_ITEM()
RATIONAL_B_SPLINE_SURFACE(((1.,1.),(0.333333333333333,0.333333333333333),
(0.333333333333333,0.333333333333333),(1.,1.)))
REPRESENTATION_ITEM('')
SURFACE()
);
#324=(
BOUNDED_SURFACE()
B_SPLINE_SURFACE(3,1,((#549,#550),(#551,#552),(#553,#554),(#555,#556)),
 .CYLINDRICAL_SURF.,.F.,.F.,.F.)
B_SPLINE_SURFACE_WITH_KNOTS((4,4),(2,2),(0.5,1.),(0.0454545454545451,0.954545454545454),
 .PIECEWISE_BEZIER_KNOTS.)
GEOMETRIC_REPRESENTATION_ITEM()
RATIONAL_B_SPLINE_SURFACE(((1.,1.),(0.333333333333333,0.333333333333333),
(0.333333333333333,0.333333333333333),(1.,1.)))
REPRESENTATION_ITEM('')
SURFACE()
);
#325=(
BOUNDED_SURFACE()
B_SPLINE_SURFACE(3,1,((#567,#568),(#569,#570),(#571,#572),(#573,#574)),
 .CYLINDRICAL_SURF.,.F.,.F.,.F.)
B_SPLINE_SURFACE_WITH_KNOTS((4,4),(2,2),(0.5,1.),(0.0454545454545455,0.954545454545454),
 .PIECEWISE_BEZIER_KNOTS.)
GEOMETRIC_REPRESENTATION_ITEM()
RATIONAL_B_SPLINE_SURFACE(((1.,1.),(0.333333333333333,0.333333333333333),
(0.333333333333333,0.333333333333333),(1.,1.)))
REPRESENTATION_ITEM('')
SURFACE()
);
#326=(
BOUNDED_SURFACE()
B_SPLINE_SURFACE(3,1,((#585,#586),(#587,#588),(#589,#590),(#591,#592)),
 .CYLINDRICAL_SURF.,.F.,.F.,.F.)
B_SPLINE_SURFACE_WITH_KNOTS((4,4),(2,2),(0.5,1.),(0.0454545454545453,0.954545454545454),
 .PIECEWISE_BEZIER_KNOTS.)
GEOMETRIC_REPRESENTATION_ITEM()
RATIONAL_B_SPLINE_SURFACE(((1.,1.),(0.333333333333333,0.333333333333333),
(0.333333333333333,0.333333333333333),(1.,1.)))
REPRESENTATION_ITEM('')
SURFACE()
);
#327=(
BOUNDED_SURFACE()
B_SPLINE_SURFACE(3,1,((#603,#604),(#605,#606),(#607,#608),(#609,#610)),
 .CYLINDRICAL_SURF.,.F.,.F.,.F.)
B_SPLINE_SURFACE_WITH_KNOTS((4,4),(2,2),(0.,0.5),(0.0454545454545451,0.954545454545454),
 .PIECEWISE_BEZIER_KNOTS.)
GEOMETRIC_REPRESENTATION_ITEM()
RATIONAL_B_SPLINE_SURFACE(((1.,1.),(0.333333333333333,0.333333333333333),
(0.333333333333333,0.333333333333333),(1.,1.)))
REPRESENTATION_ITEM('')
SURFACE()
);
#328=(
BOUNDED_SURFACE()
B_SPLINE_SURFACE(3,1,((#613,#614),(#615,#616),(#617,#618),(#619,#620)),
 .CYLINDRICAL_SURF.,.F.,.F.,.F.)
B_SPLINE_SURFACE_WITH_KNOTS((4,4),(2,2),(0.,0.5),(0.0454545454545455,0.954545454545454),
 .PIECEWISE_BEZIER_KNOTS.)
GEOMETRIC_REPRESENTATION_ITEM()
RATIONAL_B_SPLINE_SURFACE(((1.,1.),(0.333333333333333,0.333333333333333),
(0.333333333333333,0.333333333333333),(1.,1.)))
REPRESENTATION_ITEM('')
SURFACE()
);
#329=(
BOUNDED_SURFACE()
B_SPLINE_SURFACE(3,1,((#623,#624),(#625,#626),(#627,#628),(#629,#630),(#631,
#632),(#633,#634),(#635,#636)),.CYLINDRICAL_SURF.,.F.,.F.,.F.)
B_SPLINE_SURFACE_WITH_KNOTS((4,3,4),(2,2),(0.,0.5,1.),(0.0454545454545447,
0.954545454545455),.PIECEWISE_BEZIER_KNOTS.)
GEOMETRIC_REPRESENTATION_ITEM()
RATIONAL_B_SPLINE_SURFACE(((1.,1.),(0.620283877090502,0.620283877090502),
(0.620283877090502,0.620283877090502),(1.,1.),(0.620283877090502,0.620283877090502),
(0.620283877090502,0.620283877090502),(1.,1.)))
REPRESENTATION_ITEM('')
SURFACE()
);
#330=(
BOUNDED_SURFACE()
B_SPLINE_SURFACE(3,1,((#647,#648),(#649,#650),(#651,#652),(#653,#654)),
 .CYLINDRICAL_SURF.,.F.,.F.,.F.)
B_SPLINE_SURFACE_WITH_KNOTS((4,4),(2,2),(0.,0.5),(0.0454545454545453,0.954545454545455),
 .PIECEWISE_BEZIER_KNOTS.)
GEOMETRIC_REPRESENTATION_ITEM()
RATIONAL_B_SPLINE_SURFACE(((1.,1.),(0.333333333333333,0.333333333333333),
(0.333333333333333,0.333333333333333),(1.,1.)))
REPRESENTATION_ITEM('')
SURFACE()
);
#331=(
BOUNDED_SURFACE()
B_SPLINE_SURFACE(3,1,((#670,#671),(#672,#673),(#674,#675),(#676,#677)),
 .CYLINDRICAL_SURF.,.F.,.F.,.F.)
B_SPLINE_SURFACE_WITH_KNOTS((4,4),(2,2),(0.,0.5),(0.0454545454545452,0.954545454545455),
 .PIECEWISE_BEZIER_KNOTS.)
GEOMETRIC_REPRESENTATION_ITEM()
RATIONAL_B_SPLINE_SURFACE(((1.,1.),(0.333333333333333,0.333333333333333),
(0.333333333333333,0.333333333333333),(1.,1.)))
REPRESENTATION_ITEM('')
SURFACE()
);
#332=(
BOUNDED_SURFACE()
B_SPLINE_SURFACE(3,3,((#687,#688,#689,#690,#691,#692,#693),(#694,#695,#696,
#697,#698,#699,#700),(#701,#702,#703,#704,#705,#706,#707),(#708,#709,#710,
#711,#712,#713,#714)),.TOROIDAL_SURF.,.F.,.T.,.F.)
B_SPLINE_SURFACE_WITH_KNOTS((4,4),(4,3,4),(0.,1.),(0.,0.5,1.),
 .PIECEWISE_BEZIER_KNOTS.)
GEOMETRIC_REPRESENTATION_ITEM()
RATIONAL_B_SPLINE_SURFACE(((1.,0.333333333333333,0.333333333333333,1.,0.333333333333333,
0.333333333333333,1.),(0.958967835982402,0.319655945327467,0.319655945327467,
0.958967835982402,0.319655945327467,0.319655945327467,0.958967835982402),
(0.958967835982402,0.319655945327467,0.319655945327467,0.958967835982402,
0.319655945327467,0.319655945327467,0.958967835982402),(1.,0.333333333333333,
0.333333333333333,1.,0.333333333333333,0.333333333333333,1.)))
REPRESENTATION_ITEM('')
SURFACE()
);
#333=(
BOUNDED_SURFACE()
B_SPLINE_SURFACE(1,3,((#727,#728,#729,#730),(#731,#732,#733,#734)),
 .CONICAL_SURF.,.F.,.F.,.F.)
B_SPLINE_SURFACE_WITH_KNOTS((2,2),(4,4),(0.00170567613868546,0.0358191989124189),
(0.,0.5),.PIECEWISE_BEZIER_KNOTS.)
GEOMETRIC_REPRESENTATION_ITEM()
RATIONAL_B_SPLINE_SURFACE(((1.,0.333333333333333,0.333333333333333,1.),
(1.,0.333333333333333,0.333333333333333,1.)))
REPRESENTATION_ITEM('')
SURFACE()
);
#334=(
BOUNDED_SURFACE()
B_SPLINE_SURFACE(1,3,((#762,#763,#764,#765),(#766,#767,#768,#769)),
 .CONICAL_SURF.,.F.,.F.,.F.)
B_SPLINE_SURFACE_WITH_KNOTS((2,2),(4,4),(0.00709219858155965,0.148936170212767),
(0.116805108365811,0.883194891634185),.PIECEWISE_BEZIER_KNOTS.)
GEOMETRIC_REPRESENTATION_ITEM()
RATIONAL_B_SPLINE_SURFACE(((0.923560646406751,0.778490924328938,0.778490924328937,
0.923560646406749),(0.923560646406751,0.778490924328938,0.778490924328937,
0.923560646406749)))
REPRESENTATION_ITEM('')
SURFACE()
);
#335=ADVANCED_FACE('',(#294),#321,.T.);
#336=ADVANCED_FACE('',(#295),#322,.F.);
#337=ADVANCED_FACE('',(#296),#323,.F.);
#338=ADVANCED_FACE('',(#297),#324,.F.);
#339=ADVANCED_FACE('',(#298),#325,.F.);
#340=ADVANCED_FACE('',(#299),#326,.F.);
#341=ADVANCED_FACE('',(#300),#327,.F.);
#342=ADVANCED_FACE('',(#301),#328,.F.);
#343=ADVANCED_FACE('',(#302),#329,.F.);
#344=ADVANCED_FACE('',(#303),#330,.F.);
#345=ADVANCED_FACE('',(#304),#14,.T.);
#346=ADVANCED_FACE('',(#305,#306,#307,#308),#15,.T.);
#347=ADVANCED_FACE('',(#309),#331,.F.);
#348=ADVANCED_FACE('',(#310,#311),#16,.T.);
#349=ADVANCED_FACE('',(#312),#332,.F.);
#350=ADVANCED_FACE('',(#313),#17,.F.);
#351=ADVANCED_FACE('',(#314),#18,.F.);
#352=ADVANCED_FACE('',(#315),#19,.F.);
#353=ADVANCED_FACE('',(#316),#333,.T.);
#354=ADVANCED_FACE('',(#317),#20,.F.);
#355=ADVANCED_FACE('',(#318),#21,.T.);
#356=ADVANCED_FACE('',(#319),#22,.F.);
#357=ADVANCED_FACE('',(#320),#334,.F.);
#358=CLOSED_SHELL('',(#335,#336,#337,#338,#339,#340,#341,#342,#343,#344,
#345,#346,#347,#348,#349,#350,#351,#352,#353,#354,#355,#356,#357));
#359=STYLED_ITEM('',(#360),#367);
#360=PRESENTATION_STYLE_ASSIGNMENT((#361));
#361=SURFACE_STYLE_USAGE(.BOTH.,#362);
#362=SURFACE_SIDE_STYLE('',(#363));
#363=SURFACE_STYLE_FILL_AREA(#364);
#364=FILL_AREA_STYLE('',(#365));
#365=FILL_AREA_STYLE_COLOUR('',#366);
#366=COLOUR_RGB('',0.917647058823529,0.917647058823529,0.917647058823529);
#367=MANIFOLD_SOLID_BREP('new v2 concept v48',#358);
#368=SHAPE_DEFINITION_REPRESENTATION(#776,#369);
#369=SHAPE_REPRESENTATION('new v2 concept v48',(#370),#771);
#370=AXIS2_PLACEMENT_3D('',#468,#400,#401);
#371=AXIS2_PLACEMENT_3D('',#477,#402,#403);
#372=AXIS2_PLACEMENT_3D('',#483,#404,#405);
#373=AXIS2_PLACEMENT_3D('',#515,#406,#407);
#374=AXIS2_PLACEMENT_3D('',#521,#408,#409);
#375=AXIS2_PLACEMENT_3D('',#535,#410,#411);
#376=AXIS2_PLACEMENT_3D('',#541,#412,#413);
#377=AXIS2_PLACEMENT_3D('',#546,#414,#415);
#378=AXIS2_PLACEMENT_3D('',#557,#417,#418);
#379=AXIS2_PLACEMENT_3D('',#563,#419,#420);
#380=AXIS2_PLACEMENT_3D('',#575,#421,#422);
#381=AXIS2_PLACEMENT_3D('',#581,#423,#424);
#382=AXIS2_PLACEMENT_3D('',#593,#425,#426);
#383=AXIS2_PLACEMENT_3D('',#599,#427,#428);
#384=AXIS2_PLACEMENT_3D('',#611,#429,#430);
#385=AXIS2_PLACEMENT_3D('',#612,#431,#432);
#386=AXIS2_PLACEMENT_3D('',#621,#433,#434);
#387=AXIS2_PLACEMENT_3D('',#622,#435,#436);
#388=AXIS2_PLACEMENT_3D('',#637,#437,#438);
#389=AXIS2_PLACEMENT_3D('',#642,#440,#441);
#390=AXIS2_PLACEMENT_3D('',#644,#442,#443);
#391=AXIS2_PLACEMENT_3D('',#655,#445,#446);
#392=AXIS2_PLACEMENT_3D('',#656,#447,#448);
#393=AXIS2_PLACEMENT_3D('',#661,#449,#450);
#394=AXIS2_PLACEMENT_3D('',#667,#452,#453);
#395=AXIS2_PLACEMENT_3D('',#678,#455,#456);
#396=AXIS2_PLACEMENT_3D('',#681,#458,#459);
#397=AXIS2_PLACEMENT_3D('',#686,#460,#461);
#398=AXIS2_PLACEMENT_3D('',#759,#464,#465);
#399=AXIS2_PLACEMENT_3D('',#761,#466,#467);
#400=DIRECTION('',(0.,0.,1.));
#401=DIRECTION('',(1.,0.,0.));
#402=DIRECTION('',(0.,0.,-1.));
#403=DIRECTION('',(-1.,0.,0.));
#404=DIRECTION('',(0.,0.,1.));
#405=DIRECTION('',(1.,0.,0.));
#406=DIRECTION('',(0.,0.,-1.));
#407=DIRECTION('',(-1.,0.,0.));
#408=DIRECTION('',(0.,0.,-1.));
#409=DIRECTION('',(1.,0.,0.));
#410=DIRECTION('',(0.,0.,1.));
#411=DIRECTION('',(1.,0.,0.));
#412=DIRECTION('',(0.,0.,-1.));
#413=DIRECTION('',(1.,0.,0.));
#414=DIRECTION('',(0.,0.,-1.));
#415=DIRECTION('',(1.,0.,0.));
#416=DIRECTION('',(0.,0.,1.));
#417=DIRECTION('',(0.,0.,1.));
#418=DIRECTION('',(1.,0.,0.));
#419=DIRECTION('',(0.,0.,1.));
#420=DIRECTION('',(1.,0.,0.));
#421=DIRECTION('',(0.,0.,1.));
#422=DIRECTION('',(1.,0.,0.));
#423=DIRECTION('',(0.,0.,1.));
#424=DIRECTION('',(1.,0.,0.));
#425=DIRECTION('',(0.,0.,1.));
#426=DIRECTION('',(1.,0.,0.));
#427=DIRECTION('',(0.,0.,1.));
#428=DIRECTION('',(1.,0.,0.));
#429=DIRECTION('',(0.,0.,1.));
#430=DIRECTION('',(1.,0.,0.));
#431=DIRECTION('',(0.,0.,1.));
#432=DIRECTION('',(1.,0.,0.));
#433=DIRECTION('',(0.,0.,1.));
#434=DIRECTION('',(1.,0.,0.));
#435=DIRECTION('',(0.,0.,1.));
#436=DIRECTION('',(1.,0.,0.));
#437=DIRECTION('',(0.,0.,1.));
#438=DIRECTION('',(1.,0.,0.));
#439=DIRECTION('',(0.,0.,-1.));
#440=DIRECTION('',(0.,0.,-1.));
#441=DIRECTION('',(-1.,0.,0.));
#442=DIRECTION('',(0.,0.,-1.));
#443=DIRECTION('',(-1.,0.,0.));
#444=DIRECTION('',(0.,0.,-1.));
#445=DIRECTION('',(0.,0.,1.));
#446=DIRECTION('',(1.,0.,0.));
#447=DIRECTION('',(0.,0.,1.));
#448=DIRECTION('',(1.,0.,0.));
#449=DIRECTION('',(0.,0.,1.));
#450=DIRECTION('',(1.,0.,0.));
#451=DIRECTION('',(-1.,0.,0.));
#452=DIRECTION('',(0.,0.,-1.));
#453=DIRECTION('',(1.,0.,0.));
#454=DIRECTION('',(-1.,0.,0.));
#455=DIRECTION('',(0.,0.,1.));
#456=DIRECTION('',(1.,0.,0.));
#457=DIRECTION('',(0.,0.,1.));
#458=DIRECTION('',(0.,0.,-1.));
#459=DIRECTION('',(1.,0.,0.));
#460=DIRECTION('',(0.,0.,-1.));
#461=DIRECTION('',(1.,0.,0.));
#462=DIRECTION('',(1.,0.,0.));
#463=DIRECTION('',(1.,0.,0.));
#464=DIRECTION('',(0.,0.,1.));
#465=DIRECTION('',(1.,0.,0.));
#466=DIRECTION('',(0.,0.,1.));
#467=DIRECTION('',(1.,0.,0.));
#468=CARTESIAN_POINT('',(0.,0.,0.));
#469=CARTESIAN_POINT('',(0.0231786573570876,0.,0.0475063140924639));
#470=CARTESIAN_POINT('',(0.0231786573570876,-0.0463573147141751,0.0475063140924639));
#471=CARTESIAN_POINT('',(-0.0231786573570876,-0.0463573147141751,0.0475063140924639));
#472=CARTESIAN_POINT('',(-0.0231786573570876,0.,0.0475063140924639));
#473=CARTESIAN_POINT('',(0.0223866007093474,0.,0.0485));
#474=CARTESIAN_POINT('',(0.0223866007093474,-0.0447732014186949,0.0485));
#475=CARTESIAN_POINT('',(-0.0223866007093474,-0.0447732014186949,0.0485));
#476=CARTESIAN_POINT('',(-0.0223866007093474,0.,0.0485));
#477=CARTESIAN_POINT('',(0.,0.,0.0475063140924639));
#478=CARTESIAN_POINT('',(0.0231786573570876,0.,0.0475063140924639));
#479=CARTESIAN_POINT('',(-0.0231786573570876,0.,0.0475063140924639));
#480=CARTESIAN_POINT('',(0.0232182601894745,0.,0.0474566297970871));
#481=CARTESIAN_POINT('',(-1.38777878078145E-17,0.,0.0765854276092336));
#482=CARTESIAN_POINT('',(0.0223866007093474,0.,0.0485));
#483=CARTESIAN_POINT('',(0.,0.,0.0485));
#484=CARTESIAN_POINT('',(-0.0223866007093474,0.,0.0485));
#485=CARTESIAN_POINT('',(-0.0232182601894745,0.,0.0474566297970871));
#486=CARTESIAN_POINT('',(1.38777878078145E-17,0.,0.0765854276092336));
#487=CARTESIAN_POINT('',(-0.0268744484073649,0.,0.0655910713459881));
#488=CARTESIAN_POINT('',(-0.0268744484073649,0.0537488968147298,0.0655910713459881));
#489=CARTESIAN_POINT('',(0.0268744484073649,0.0537488968147298,0.0655910713459881));
#490=CARTESIAN_POINT('',(0.0268744484073649,0.,0.0655910713459881));
#491=CARTESIAN_POINT('',(0.0268744484073649,-0.0537488968147298,0.0655910713459881));
#492=CARTESIAN_POINT('',(-0.0268744484073649,-0.0537488968147298,0.0655910713459881));
#493=CARTESIAN_POINT('',(-0.0268744484073649,0.,0.0655910713459881));
#494=CARTESIAN_POINT('',(-0.0200089753387366,0.,0.0430646921972451));
#495=CARTESIAN_POINT('',(-0.0200089753387366,0.0400179506774731,0.0430646921972451));
#496=CARTESIAN_POINT('',(0.0200089753387366,0.0400179506774731,0.0430646921972451));
#497=CARTESIAN_POINT('',(0.0200089753387366,0.,0.0430646921972451));
#498=CARTESIAN_POINT('',(0.0200089753387366,-0.0400179506774731,0.0430646921972451));
#499=CARTESIAN_POINT('',(-0.0200089753387366,-0.0400179506774731,0.0430646921972451));
#500=CARTESIAN_POINT('',(-0.0200089753387366,0.,0.0430646921972451));
#501=CARTESIAN_POINT('',(-0.0213469044573896,0.,0.0195533667628413));
#502=CARTESIAN_POINT('',(-0.0213469044573896,0.0426938089147793,0.0195533667628413));
#503=CARTESIAN_POINT('',(0.0213469044573896,0.0426938089147793,0.0195533667628413));
#504=CARTESIAN_POINT('',(0.0213469044573896,0.,0.0195533667628413));
#505=CARTESIAN_POINT('',(0.0213469044573896,-0.0426938089147793,0.0195533667628413));
#506=CARTESIAN_POINT('',(-0.0213469044573896,-0.0426938089147793,0.0195533667628413));
#507=CARTESIAN_POINT('',(-0.0213469044573896,0.,0.0195533667628413));
#508=CARTESIAN_POINT('',(-0.0307235413822026,0.,-0.00204874327273662));
#509=CARTESIAN_POINT('',(-0.0307235413822026,0.0614470827644053,-0.00204874327273662));
#510=CARTESIAN_POINT('',(0.0307235413822026,0.0614470827644053,-0.00204874327273662));
#511=CARTESIAN_POINT('',(0.0307235413822026,0.,-0.00204874327273662));
#512=CARTESIAN_POINT('',(0.0307235413822026,-0.0614470827644053,-0.00204874327273662));
#513=CARTESIAN_POINT('',(-0.0307235413822026,-0.0614470827644053,-0.00204874327273662));
#514=CARTESIAN_POINT('',(-0.0307235413822026,0.,-0.00204874327273662));
#515=CARTESIAN_POINT('',(0.,0.,0.0475063140924639));
#516=CARTESIAN_POINT('',(0.0268744484073649,0.,0.0655910713459881));
#517=CARTESIAN_POINT('',(0.0200089753387366,0.,0.0430646921972451));
#518=CARTESIAN_POINT('',(0.0213469044573896,0.,0.0195533667628413));
#519=CARTESIAN_POINT('',(0.0307235413822026,0.,-0.00204874327273662));
#520=CARTESIAN_POINT('',(0.025,0.,0.0155));
#521=CARTESIAN_POINT('',(0.,0.,0.0155));
#522=CARTESIAN_POINT('',(-0.025,0.,0.0155));
#523=CARTESIAN_POINT('',(-0.0268744484073649,0.,0.0655910713459881));
#524=CARTESIAN_POINT('',(-0.0200089753387366,0.,0.0430646921972451));
#525=CARTESIAN_POINT('',(-0.0213469044573896,0.,0.0195533667628413));
#526=CARTESIAN_POINT('',(-0.0307235413822026,0.,-0.00204874327273662));
#527=CARTESIAN_POINT('',(0.021,2.57175827820944E-18,0.0425));
#528=CARTESIAN_POINT('',(0.021,2.57175827820944E-18,0.0155));
#529=CARTESIAN_POINT('',(0.021,-0.042,0.0425));
#530=CARTESIAN_POINT('',(0.021,-0.042,0.0155));
#531=CARTESIAN_POINT('',(-0.021,-0.042,0.0425));
#532=CARTESIAN_POINT('',(-0.021,-0.042,0.0155));
#533=CARTESIAN_POINT('',(-0.021,0.,0.0425));
#534=CARTESIAN_POINT('',(-0.021,0.,0.0155));
#535=CARTESIAN_POINT('',(0.,0.,0.0425));
#536=CARTESIAN_POINT('',(0.0175712833908056,-0.0115,0.0425));
#537=CARTESIAN_POINT('',(0.021,2.57175827820944E-18,0.0425));
#538=CARTESIAN_POINT('',(0.021,2.57175827820944E-18,0.04385));
#539=CARTESIAN_POINT('',(0.021,2.57175827820944E-18,0.01415));
#540=CARTESIAN_POINT('',(0.021,2.57175827820944E-18,0.0155));
#541=CARTESIAN_POINT('',(0.,0.,0.0155));
#542=CARTESIAN_POINT('',(-0.021,0.,0.0155));
#543=CARTESIAN_POINT('',(-0.021,0.,0.04385));
#544=CARTESIAN_POINT('',(-0.021,0.,0.01415));
#545=CARTESIAN_POINT('',(-0.021,0.,0.0405));
#546=CARTESIAN_POINT('',(0.,0.,0.0405));
#547=CARTESIAN_POINT('',(0.0175712833908056,-0.0115,0.0405));
#548=CARTESIAN_POINT('',(0.0175712833908056,-0.0115,0.0205));
#549=CARTESIAN_POINT('',(-0.0189000002682209,1.10218211923262E-19,0.0405));
#550=CARTESIAN_POINT('',(-0.0189000002682209,1.10218211923262E-19,0.0455));
#551=CARTESIAN_POINT('',(-0.0189000002682209,-0.0018,0.0405));
#552=CARTESIAN_POINT('',(-0.0189000002682209,-0.0018,0.0455));
#553=CARTESIAN_POINT('',(-0.0171000002682209,-0.0018,0.0405));
#554=CARTESIAN_POINT('',(-0.0171000002682209,-0.0018,0.0455));
#555=CARTESIAN_POINT('',(-0.0171000002682209,0.,0.0405));
#556=CARTESIAN_POINT('',(-0.0171000002682209,0.,0.0455));
#557=CARTESIAN_POINT('',(-0.0180000002682209,0.,0.0405));
#558=CARTESIAN_POINT('',(-0.0189000002682209,1.10218211923262E-19,0.0405));
#559=CARTESIAN_POINT('',(-0.0171000002682209,0.,0.0405));
#560=CARTESIAN_POINT('',(-0.0189000002682209,1.10218211923262E-19,0.04025));
#561=CARTESIAN_POINT('',(-0.0189000002682209,1.10218211923262E-19,0.04575));
#562=CARTESIAN_POINT('',(-0.0189000002682209,1.10218211923262E-19,0.0455));
#563=CARTESIAN_POINT('',(-0.0180000002682209,0.,0.0455));
#564=CARTESIAN_POINT('',(-0.0171000002682209,0.,0.0455));
#565=CARTESIAN_POINT('',(-0.0171000002682209,0.,0.04025));
#566=CARTESIAN_POINT('',(-0.0171000002682209,0.,0.04575));
#567=CARTESIAN_POINT('',(0.00810000013411045,0.015588457500406,0.0405));
#568=CARTESIAN_POINT('',(0.00810000013411045,0.015588457500406,0.0455));
#569=CARTESIAN_POINT('',(0.00810000013411045,0.013788457500406,0.0405));
#570=CARTESIAN_POINT('',(0.00810000013411045,0.013788457500406,0.0455));
#571=CARTESIAN_POINT('',(0.00990000013411045,0.013788457500406,0.0405));
#572=CARTESIAN_POINT('',(0.00990000013411045,0.013788457500406,0.0455));
#573=CARTESIAN_POINT('',(0.00990000013411045,0.015588457500406,0.0405));
#574=CARTESIAN_POINT('',(0.00990000013411045,0.015588457500406,0.0455));
#575=CARTESIAN_POINT('',(0.00900000013411045,0.015588457500406,0.0405));
#576=CARTESIAN_POINT('',(0.00810000013411045,0.015588457500406,0.0405));
#577=CARTESIAN_POINT('',(0.00990000013411045,0.015588457500406,0.0405));
#578=CARTESIAN_POINT('',(0.00810000013411045,0.015588457500406,0.04025));
#579=CARTESIAN_POINT('',(0.00810000013411045,0.015588457500406,0.04575));
#580=CARTESIAN_POINT('',(0.00810000013411045,0.015588457500406,0.0455));
#581=CARTESIAN_POINT('',(0.00900000013411045,0.015588457500406,0.0455));
#582=CARTESIAN_POINT('',(0.00990000013411045,0.015588457500406,0.0455));
#583=CARTESIAN_POINT('',(0.00990000013411045,0.015588457500406,0.04025));
#584=CARTESIAN_POINT('',(0.00990000013411045,0.015588457500406,0.04575));
#585=CARTESIAN_POINT('',(0.00810000013411045,-0.015588457500406,0.0405));
#586=CARTESIAN_POINT('',(0.00810000013411045,-0.015588457500406,0.0455));
#587=CARTESIAN_POINT('',(0.00810000013411045,-0.017388457500406,0.0405));
#588=CARTESIAN_POINT('',(0.00810000013411045,-0.017388457500406,0.0455));
#589=CARTESIAN_POINT('',(0.00990000013411045,-0.017388457500406,0.0405));
#590=CARTESIAN_POINT('',(0.00990000013411045,-0.017388457500406,0.0455));
#591=CARTESIAN_POINT('',(0.00990000013411045,-0.015588457500406,0.0405));
#592=CARTESIAN_POINT('',(0.00990000013411045,-0.015588457500406,0.0455));
#593=CARTESIAN_POINT('',(0.00900000013411045,-0.015588457500406,0.0405));
#594=CARTESIAN_POINT('',(0.00810000013411045,-0.015588457500406,0.0405));
#595=CARTESIAN_POINT('',(0.00990000013411045,-0.015588457500406,0.0405));
#596=CARTESIAN_POINT('',(0.00810000013411045,-0.015588457500406,0.04025));
#597=CARTESIAN_POINT('',(0.00810000013411045,-0.015588457500406,0.04575));
#598=CARTESIAN_POINT('',(0.00810000013411045,-0.015588457500406,0.0455));
#599=CARTESIAN_POINT('',(0.00900000013411045,-0.015588457500406,0.0455));
#600=CARTESIAN_POINT('',(0.00990000013411045,-0.015588457500406,0.0455));
#601=CARTESIAN_POINT('',(0.00990000013411045,-0.015588457500406,0.04025));
#602=CARTESIAN_POINT('',(0.00990000013411045,-0.015588457500406,0.04575));
#603=CARTESIAN_POINT('',(0.00990000013411045,-0.015588457500406,0.0405));
#604=CARTESIAN_POINT('',(0.00990000013411045,-0.015588457500406,0.0455));
#605=CARTESIAN_POINT('',(0.00990000013411045,-0.013788457500406,0.0405));
#606=CARTESIAN_POINT('',(0.00990000013411045,-0.013788457500406,0.0455));
#607=CARTESIAN_POINT('',(0.00810000013411045,-0.013788457500406,0.0405));
#608=CARTESIAN_POINT('',(0.00810000013411045,-0.013788457500406,0.0455));
#609=CARTESIAN_POINT('',(0.00810000013411045,-0.015588457500406,0.0405));
#610=CARTESIAN_POINT('',(0.00810000013411045,-0.015588457500406,0.0455));
#611=CARTESIAN_POINT('',(0.00900000013411045,-0.015588457500406,0.0405));
#612=CARTESIAN_POINT('',(0.00900000013411045,-0.015588457500406,0.0455));
#613=CARTESIAN_POINT('',(0.00990000013411045,0.015588457500406,0.0405));
#614=CARTESIAN_POINT('',(0.00990000013411045,0.015588457500406,0.0455));
#615=CARTESIAN_POINT('',(0.00990000013411045,0.017388457500406,0.0405));
#616=CARTESIAN_POINT('',(0.00990000013411045,0.017388457500406,0.0455));
#617=CARTESIAN_POINT('',(0.00810000013411045,0.017388457500406,0.0405));
#618=CARTESIAN_POINT('',(0.00810000013411045,0.017388457500406,0.0455));
#619=CARTESIAN_POINT('',(0.00810000013411045,0.015588457500406,0.0405));
#620=CARTESIAN_POINT('',(0.00810000013411045,0.015588457500406,0.0455));
#621=CARTESIAN_POINT('',(0.00900000013411045,0.015588457500406,0.0405));
#622=CARTESIAN_POINT('',(0.00900000013411045,0.015588457500406,0.0455));
#623=CARTESIAN_POINT('',(0.00931611507013519,-0.0115,0.0455));
#624=CARTESIAN_POINT('',(0.00931611507013519,-0.0115,0.0405));
#625=CARTESIAN_POINT('',(-0.00184028055495384,-0.0205377622096767,0.0455));
#626=CARTESIAN_POINT('',(-0.00184028055495384,-0.0205377622096767,0.0405));
#627=CARTESIAN_POINT('',(-0.0148,-0.0143577961088102,0.0455));
#628=CARTESIAN_POINT('',(-0.0148,-0.0143577961088102,0.0405));
#629=CARTESIAN_POINT('',(-0.0148,0.,0.0455));
#630=CARTESIAN_POINT('',(-0.0148,0.,0.0405));
#631=CARTESIAN_POINT('',(-0.0148,0.0143577961088102,0.0455));
#632=CARTESIAN_POINT('',(-0.0148,0.0143577961088102,0.0405));
#633=CARTESIAN_POINT('',(-0.00184028055495385,0.0205377622096767,0.0455));
#634=CARTESIAN_POINT('',(-0.00184028055495385,0.0205377622096767,0.0405));
#635=CARTESIAN_POINT('',(0.00931611507013519,0.0115,0.0455));
#636=CARTESIAN_POINT('',(0.00931611507013519,0.0115,0.0405));
#637=CARTESIAN_POINT('',(0.,0.,0.0455));
#638=CARTESIAN_POINT('',(0.00931611507013519,-0.0115,0.0455));
#639=CARTESIAN_POINT('',(0.00931611507013519,0.0115,0.0455));
#640=CARTESIAN_POINT('',(0.00931611507013519,-0.0115,0.046));
#641=CARTESIAN_POINT('',(0.00931611507013519,-0.0115,0.0405));
#642=CARTESIAN_POINT('',(0.,0.,0.0405));
#643=CARTESIAN_POINT('',(-0.0148,0.,0.0405));
#644=CARTESIAN_POINT('',(0.,0.,0.0405));
#645=CARTESIAN_POINT('',(0.00931611507013519,0.0115,0.0405));
#646=CARTESIAN_POINT('',(0.00931611507013519,0.0115,0.046));
#647=CARTESIAN_POINT('',(-0.0171000002682209,0.,0.0405));
#648=CARTESIAN_POINT('',(-0.0171000002682209,0.,0.0455));
#649=CARTESIAN_POINT('',(-0.0171000002682209,0.0018,0.0405));
#650=CARTESIAN_POINT('',(-0.0171000002682209,0.0018,0.0455));
#651=CARTESIAN_POINT('',(-0.0189000002682209,0.0018,0.0405));
#652=CARTESIAN_POINT('',(-0.0189000002682209,0.0018,0.0455));
#653=CARTESIAN_POINT('',(-0.0189000002682209,1.10218211923262E-19,0.0405));
#654=CARTESIAN_POINT('',(-0.0189000002682209,1.10218211923262E-19,0.0455));
#655=CARTESIAN_POINT('',(-0.0180000002682209,0.,0.0405));
#656=CARTESIAN_POINT('',(-0.0180000002682209,0.,0.0455));
#657=CARTESIAN_POINT('',(-0.0227909557236118,-0.0228303184796315,0.0485));
#658=CARTESIAN_POINT('',(-0.0227909557236118,0.0227337751653152,0.0485));
#659=CARTESIAN_POINT('',(0.0226560493560649,-0.0228303184796315,0.0485));
#660=CARTESIAN_POINT('',(0.0226560493560649,0.0227337751653152,0.0485));
#661=CARTESIAN_POINT('',(0.,0.,0.0485));
#662=CARTESIAN_POINT('',(0.0178037527189762,-0.0213997522950368,0.0405));
#663=CARTESIAN_POINT('',(0.0178037527189762,0.0214373500896423,0.0405));
#664=CARTESIAN_POINT('',(-0.0214060739658039,-0.0213997522950368,0.0405));
#665=CARTESIAN_POINT('',(-0.0214060739658039,0.0214373500896423,0.0405));
#666=CARTESIAN_POINT('',(-0.016,-0.0115,0.0405));
#667=CARTESIAN_POINT('',(0.,0.,0.0405));
#668=CARTESIAN_POINT('',(0.0175712833908056,0.0115,0.0405));
#669=CARTESIAN_POINT('',(-0.016,0.0115,0.0405));
#670=CARTESIAN_POINT('',(-0.021,0.,0.0425));
#671=CARTESIAN_POINT('',(-0.021,0.,0.0155));
#672=CARTESIAN_POINT('',(-0.021,0.042,0.0425));
#673=CARTESIAN_POINT('',(-0.021,0.042,0.0155));
#674=CARTESIAN_POINT('',(0.021,0.042,0.0425));
#675=CARTESIAN_POINT('',(0.021,0.042,0.0155));
#676=CARTESIAN_POINT('',(0.021,2.57175827820944E-18,0.0425));
#677=CARTESIAN_POINT('',(0.021,2.57175827820944E-18,0.0155));
#678=CARTESIAN_POINT('',(0.,0.,0.0425));
#679=CARTESIAN_POINT('',(0.0175712833908056,0.0115,0.0425));
#680=CARTESIAN_POINT('',(0.0175712833908056,0.0115,0.0205));
#681=CARTESIAN_POINT('',(0.,0.,0.0155));
#682=CARTESIAN_POINT('',(0.0253009039315703,-0.0253877034084755,0.0155));
#683=CARTESIAN_POINT('',(0.0253009039315703,0.025495517135501,0.0155));
#684=CARTESIAN_POINT('',(-0.0254515591932806,-0.0253877034084755,0.0155));
#685=CARTESIAN_POINT('',(-0.0254515591932806,0.025495517135501,0.0155));
#686=CARTESIAN_POINT('',(0.,0.,0.0155));
#687=CARTESIAN_POINT('',(-0.0268744484073649,0.,0.0655910713459881));
#688=CARTESIAN_POINT('',(-0.0268744484073649,0.0537488968147298,0.0655910713459881));
#689=CARTESIAN_POINT('',(0.0268744484073649,0.0537488968147298,0.0655910713459881));
#690=CARTESIAN_POINT('',(0.0268744484073649,0.,0.0655910713459881));
#691=CARTESIAN_POINT('',(0.0268744484073649,-0.0537488968147298,0.0655910713459881));
#692=CARTESIAN_POINT('',(-0.0268744484073649,-0.0537488968147298,0.0655910713459881));
#693=CARTESIAN_POINT('',(-0.0268744484073649,0.,0.0655910713459881));
#694=CARTESIAN_POINT('',(-0.0200089753387366,0.,0.0430646921972451));
#695=CARTESIAN_POINT('',(-0.0200089753387366,0.0400179506774731,0.0430646921972451));
#696=CARTESIAN_POINT('',(0.0200089753387366,0.0400179506774731,0.0430646921972451));
#697=CARTESIAN_POINT('',(0.0200089753387366,0.,0.0430646921972451));
#698=CARTESIAN_POINT('',(0.0200089753387366,-0.0400179506774731,0.0430646921972451));
#699=CARTESIAN_POINT('',(-0.0200089753387366,-0.0400179506774731,0.0430646921972451));
#700=CARTESIAN_POINT('',(-0.0200089753387366,0.,0.0430646921972451));
#701=CARTESIAN_POINT('',(-0.0213469044573896,0.,0.0195533667628413));
#702=CARTESIAN_POINT('',(-0.0213469044573896,0.0426938089147793,0.0195533667628413));
#703=CARTESIAN_POINT('',(0.0213469044573896,0.0426938089147793,0.0195533667628413));
#704=CARTESIAN_POINT('',(0.0213469044573896,0.,0.0195533667628413));
#705=CARTESIAN_POINT('',(0.0213469044573896,-0.0426938089147793,0.0195533667628413));
#706=CARTESIAN_POINT('',(-0.0213469044573896,-0.0426938089147793,0.0195533667628413));
#707=CARTESIAN_POINT('',(-0.0213469044573896,0.,0.0195533667628413));
#708=CARTESIAN_POINT('',(-0.0307235413822026,0.,-0.00204874327273662));
#709=CARTESIAN_POINT('',(-0.0307235413822026,0.0614470827644053,-0.00204874327273662));
#710=CARTESIAN_POINT('',(0.0307235413822026,0.0614470827644053,-0.00204874327273662));
#711=CARTESIAN_POINT('',(0.0307235413822026,0.,-0.00204874327273662));
#712=CARTESIAN_POINT('',(0.0307235413822026,-0.0614470827644053,-0.00204874327273662));
#713=CARTESIAN_POINT('',(-0.0307235413822026,-0.0614470827644053,-0.00204874327273662));
#714=CARTESIAN_POINT('',(-0.0307235413822026,0.,-0.00204874327273662));
#715=CARTESIAN_POINT('',(-0.018916256399179,-0.000913957322705118,0.0455));
#716=CARTESIAN_POINT('',(-0.018916256399179,0.000917838616878037,0.0455));
#717=CARTESIAN_POINT('',(-0.0170891677266844,-0.000913957322705118,0.0455));
#718=CARTESIAN_POINT('',(-0.0170891677266844,0.000917838616878037,0.0455));
#719=CARTESIAN_POINT('',(0.00808374400315235,0.0146745001777009,0.0455));
#720=CARTESIAN_POINT('',(0.00808374400315235,0.016506296117284,0.0455));
#721=CARTESIAN_POINT('',(0.00991083267564698,0.0146745001777009,0.0455));
#722=CARTESIAN_POINT('',(0.00991083267564698,0.016506296117284,0.0455));
#723=CARTESIAN_POINT('',(0.00808374400315235,-0.0165024148231111,0.0455));
#724=CARTESIAN_POINT('',(0.00808374400315235,-0.014670618883528,0.0455));
#725=CARTESIAN_POINT('',(0.00991083267564698,-0.0165024148231111,0.0455));
#726=CARTESIAN_POINT('',(0.00991083267564698,-0.014670618883528,0.0455));
#727=CARTESIAN_POINT('',(-0.0231786573570876,0.,0.0475063140924639));
#728=CARTESIAN_POINT('',(-0.0231786573570876,0.0463573147141751,0.0475063140924639));
#729=CARTESIAN_POINT('',(0.0231786573570876,0.0463573147141751,0.0475063140924639));
#730=CARTESIAN_POINT('',(0.0231786573570876,0.,0.0475063140924639));
#731=CARTESIAN_POINT('',(-0.0223866007093474,0.,0.0485));
#732=CARTESIAN_POINT('',(-0.0223866007093474,0.0447732014186949,0.0485));
#733=CARTESIAN_POINT('',(0.0223866007093474,0.0447732014186949,0.0485));
#734=CARTESIAN_POINT('',(0.0223866007093474,0.,0.0485));
#735=CARTESIAN_POINT('',(0.00890335665410167,-0.0115,0.04575));
#736=CARTESIAN_POINT('',(0.0179840418068391,-0.0115,0.04575));
#737=CARTESIAN_POINT('',(0.00890335665410167,-0.0115,0.04025));
#738=CARTESIAN_POINT('',(0.0179840418068391,-0.0115,0.04025));
#739=CARTESIAN_POINT('',(0.00878564169540279,-0.0115,0.0455));
#740=CARTESIAN_POINT('',(0.0138473824241262,-0.0115,0.0455));
#741=CARTESIAN_POINT('',(0.0138473824241262,-0.0115,0.0455));
#742=CARTESIAN_POINT('',(0.0151109490605667,-0.0115,0.0445279394203801));
#743=CARTESIAN_POINT('',(0.0163486938569003,-0.0115,0.0435229746271849));
#744=CARTESIAN_POINT('',(0.0175712833908056,-0.0115,0.0425));
#745=CARTESIAN_POINT('',(0.00890335665410167,0.0115,0.04575));
#746=CARTESIAN_POINT('',(0.0179840418068391,0.0115,0.04575));
#747=CARTESIAN_POINT('',(0.00890335665410167,0.0115,0.04025));
#748=CARTESIAN_POINT('',(0.0179840418068391,0.0115,0.04025));
#749=CARTESIAN_POINT('',(0.0175712833908056,0.0115,0.0425));
#750=CARTESIAN_POINT('',(0.0163486486736019,0.0115,0.0435230124333059));
#751=CARTESIAN_POINT('',(0.0151108474384373,0.0115,0.044528017598185));
#752=CARTESIAN_POINT('',(0.0138473824241262,0.0115,0.0455));
#753=CARTESIAN_POINT('',(0.0138473824241262,0.0115,0.0455));
#754=CARTESIAN_POINT('',(0.00878564169540279,0.0115,0.0455));
#755=CARTESIAN_POINT('',(-0.0151256484214843,-0.0151071210365221,0.0455));
#756=CARTESIAN_POINT('',(-0.0151256484214843,0.0150925996898938,0.0455));
#757=CARTESIAN_POINT('',(0.0183501112883392,-0.0151071210365221,0.0455));
#758=CARTESIAN_POINT('',(0.0183501112883392,0.0150925996898938,0.0455));
#759=CARTESIAN_POINT('',(0.,0.,0.0455));
#760=CARTESIAN_POINT('',(0.018,0.,0.0455));
#761=CARTESIAN_POINT('',(0.,0.,0.0455));
#762=CARTESIAN_POINT('',(0.0160520886059511,0.0135399575843758,0.0425));
#763=CARTESIAN_POINT('',(0.0229566471929394,0.00535436427415667,0.0425));
#764=CARTESIAN_POINT('',(0.0229566471929395,-0.00535436427415651,0.0425));
#765=CARTESIAN_POINT('',(0.0160520886059512,-0.0135399575843757,0.0425));
#766=CARTESIAN_POINT('',(0.0137589330908152,0.0116056779294649,0.0455));
#767=CARTESIAN_POINT('',(0.0196771261653766,0.00458945509213428,0.0455));
#768=CARTESIAN_POINT('',(0.0196771261653766,-0.00458945509213414,0.0455));
#769=CARTESIAN_POINT('',(0.0137589330908153,-0.0116056779294648,0.0455));
#770=MECHANICAL_DESIGN_GEOMETRIC_PRESENTATION_REPRESENTATION('',(#359),
#771);
#771=(
GEOMETRIC_REPRESENTATION_CONTEXT(3)
GLOBAL_UNCERTAINTY_ASSIGNED_CONTEXT((#772))
GLOBAL_UNIT_ASSIGNED_CONTEXT((#775,#774,#773))
REPRESENTATION_CONTEXT('new v2 concept v48','TOP_LEVEL_ASSEMBLY_PART')
);
#772=UNCERTAINTY_MEASURE_WITH_UNIT(LENGTH_MEASURE(2.E-5),#775,
'DISTANCE_ACCURACY_VALUE','Maximum Tolerance applied to model');
#773=(
NAMED_UNIT(*)
SI_UNIT($,.STERADIAN.)
SOLID_ANGLE_UNIT()
);
#774=(
NAMED_UNIT(*)
PLANE_ANGLE_UNIT()
SI_UNIT($,.RADIAN.)
);
#775=(
LENGTH_UNIT()
NAMED_UNIT(*)
SI_UNIT($,.METRE.)
);
#776=PRODUCT_DEFINITION_SHAPE('','',#777);
#777=PRODUCT_DEFINITION('','',#779,#778);
#778=PRODUCT_DEFINITION_CONTEXT('',#785,'design');
#779=PRODUCT_DEFINITION_FORMATION_WITH_SPECIFIED_SOURCE('','',#781,
 .NOT_KNOWN.);
#780=PRODUCT_RELATED_PRODUCT_CATEGORY('','',(#781));
#781=PRODUCT('new v2 concept v48','new v2 concept v48',
'new v2 concept v48',(#783));
#782=PRODUCT_CATEGORY('','');
#783=PRODUCT_CONTEXT('',#785,'mechanical');
#784=APPLICATION_PROTOCOL_DEFINITION('international standard',
'ap242_managed_model_based_3d_engineering',2011,#785);
#785=APPLICATION_CONTEXT('managed model based 3d engineering');
ENDSEC;
END-ISO-10303-21;
